<svg xmlns="http://www.w3.org/2000/svg" viewBox="0 0 100 100" stroke="white" stroke-width="3" fill="none">
    <!-- <style>
        svg {
            color: black;
        }
    </style> -->
    <rect x="0" y="0" width="100" height="100" fill="#777" stroke="none"/>
    <!-- lid -->
    <path d="M89 9a4 4 0 0 1 4 4v2h-86v-2a4 4 0 0 1 4 -4z" fill="white"/>
    <!-- handle -->
    <path d="M41 9v-5a1 1 0 0 1 1 -1h16a1 1 0 0 1 1 1v5"/>
    <!-- can -->
    <path d="M74.25 94.5a6 6 0 0 0 5.95 -5.15l9.8 -69.85h-80l9.8 69.85a6 6 0 0 0 5.95 5.15z" fill="black"/>
    <!-- lines -->
    <path d="M50 30v54" stroke-linecap="round"/>
    <path d="M30 30l4 54" stroke-linecap="round"/>
    <path d="M70 30l-4 54" stroke-linecap="round"/>
</svg>