<svg viewBox="0 0 40 40"
    xmlns="http://www.w3.org/2000/svg" fill="none" stroke-width="2" stroke="white">
    <rect width="40" height="40" fill="black" stroke="none"/>
    <rect x="3" y="25.5" width="20" height="11.25"/>
    <path d="M3 35.5l7 -7l7 7l3 -3l3 3"/>
    <path d="M16 30.5h4a1 1 0 0 0 0 -2h-1.5a 1 1 0 0 0 -2 0h-0.5a1 1 0 0 0 0 2"/>
    <path d="M7 31.5a2.5 2.5 0 1 1 2.5 -2.5z" fill="white" stroke="none"/>
    <path d="M16 19h22v-14a1 1 0 0 0 -1 -1h-14a1.2 1.2 0 0 1 -1 -0.7l-0.5 -1a1.2 1.2 0 0 0 -1 -0.7h-3.5a1 1 0 0 0 -1 1z"/>
    <path d="M13 12h 15v15l-5 -5l-10 10l-5 -5l10 -10z" fill="black"/>
</svg>